<svg width="22" height="24" viewBox="0 0 22 24" fill="none" xmlns="http://www.w3.org/2000/svg">
<path d="M18.3333 2H3.67575C2.66742 2 1.84242 2.9 1.84242 4L1.83325 22L5.49992 18H18.3333C19.3416 18 20.1666 17.1 20.1666 16V4C20.1666 2.9 19.3416 2 18.3333 2ZM18.3333 16H4.73909L3.66659 17.17V4H18.3333V16ZM10.9999 10C12.0083 10 12.8333 9.1 12.8333 8C12.8333 6.9 12.0083 6 10.9999 6C9.99158 6 9.16658 6.9 9.16658 8C9.16658 9.1 9.99158 10 10.9999 10ZM14.6666 13.43C14.6666 12.62 14.2266 11.9 13.5483 11.58C12.7691 11.21 11.9074 11 10.9999 11C10.0924 11 9.23075 11.21 8.45159 11.58C7.77325 11.9 7.33325 12.62 7.33325 13.43V14H14.6666V13.43Z" fill="white"/>
</svg>
