<svg width="44" height="46" viewBox="0 0 44 46" fill="none" xmlns="http://www.w3.org/2000/svg">
<path d="M31.1667 11.5H12.8334C6.76504 11.5 1.83337 16.6558 1.83337 23C1.83337 29.3442 6.76504 34.5 12.8334 34.5H31.1667C37.235 34.5 42.1667 29.3442 42.1667 23C42.1667 16.6558 37.235 11.5 31.1667 11.5ZM31.1667 30.6667H12.8334C8.78171 30.6667 5.50004 27.2358 5.50004 23C5.50004 18.7642 8.78171 15.3333 12.8334 15.3333H31.1667C35.2184 15.3333 38.5 18.7642 38.5 23C38.5 27.2358 35.2184 30.6667 31.1667 30.6667ZM12.8334 17.25C9.79004 17.25 7.33337 19.8183 7.33337 23C7.33337 26.1817 9.79004 28.75 12.8334 28.75C15.8767 28.75 18.3334 26.1817 18.3334 23C18.3334 19.8183 15.8767 17.25 12.8334 17.25Z" fill="black"/>
</svg>
