<svg width="22" height="24" viewBox="0 0 22 24" fill="none" xmlns="http://www.w3.org/2000/svg">
<path d="M18.3334 2H3.67587C2.66754 2 1.84254 2.9 1.84254 4L1.83337 22L5.50004 18H18.3334C19.3417 18 20.1667 17.1 20.1667 16V4C20.1667 2.9 19.3417 2 18.3334 2ZM18.3334 16H4.73921L3.66671 17.17V4H18.3334V16ZM11 10C12.0084 10 12.8334 9.1 12.8334 8C12.8334 6.9 12.0084 6 11 6C9.99171 6 9.16671 6.9 9.16671 8C9.16671 9.1 9.99171 10 11 10ZM14.6667 13.43C14.6667 12.62 14.2267 11.9 13.5484 11.58C12.7692 11.21 11.9075 11 11 11C10.0925 11 9.23087 11.21 8.45171 11.58C7.77337 11.9 7.33337 12.62 7.33337 13.43V14H14.6667V13.43Z" fill="white"/>
</svg>
