<svg width="31" height="31" viewBox="0 0 31 31" fill="none" xmlns="http://www.w3.org/2000/svg">
<path d="M20.6666 7.74996V22.6041C20.6666 25.4587 18.3545 27.7708 15.4999 27.7708C12.6453 27.7708 10.3333 25.4587 10.3333 22.6041V6.45829C10.3333 4.67579 11.7799 3.22913 13.5624 3.22913C15.3449 3.22913 16.7916 4.67579 16.7916 6.45829V20.0208C16.7916 20.7312 16.2103 21.3125 15.4999 21.3125C14.7895 21.3125 14.2083 20.7312 14.2083 20.0208V7.74996H12.2708V20.0208C12.2708 21.8033 13.7174 23.25 15.4999 23.25C17.2824 23.25 18.7291 21.8033 18.7291 20.0208V6.45829C18.7291 3.60371 16.417 1.29163 13.5624 1.29163C10.7078 1.29163 8.39575 3.60371 8.39575 6.45829V22.6041C8.39575 26.5308 11.5733 29.7083 15.4999 29.7083C19.4266 29.7083 22.6041 26.5308 22.6041 22.6041V7.74996H20.6666Z" fill="black"/>
</svg>
