<svg width="26" height="26" viewBox="0 0 26 26" fill="none" xmlns="http://www.w3.org/2000/svg">
<path d="M17.3334 6.50004V18.9584C17.3334 21.3525 15.3942 23.2917 13.0001 23.2917C10.6059 23.2917 8.66675 21.3525 8.66675 18.9584V5.41671C8.66675 3.92171 9.88008 2.70837 11.3751 2.70837C12.8701 2.70837 14.0834 3.92171 14.0834 5.41671V16.7917C14.0834 17.3875 13.5959 17.875 13.0001 17.875C12.4042 17.875 11.9167 17.3875 11.9167 16.7917V6.50004H10.2917V16.7917C10.2917 18.2867 11.5051 19.5 13.0001 19.5C14.4951 19.5 15.7084 18.2867 15.7084 16.7917V5.41671C15.7084 3.02254 13.7692 1.08337 11.3751 1.08337C8.98091 1.08337 7.04175 3.02254 7.04175 5.41671V18.9584C7.04175 22.2517 9.70675 24.9167 13.0001 24.9167C16.2934 24.9167 18.9584 22.2517 18.9584 18.9584V6.50004H17.3334Z" fill="black"/>
</svg>
