<svg width="20" height="20" viewBox="0 0 20 20" fill="none" xmlns="http://www.w3.org/2000/svg">
<rect width="20" height="20" rx="10" fill="#32936F" fill-opacity="0.24"/>
<path d="M14.4733 6.8067C14.4114 6.74421 14.3376 6.69461 14.2564 6.66077C14.1752 6.62692 14.088 6.6095 14 6.6095C13.912 6.6095 13.8249 6.62692 13.7436 6.66077C13.6624 6.69461 13.5886 6.74421 13.5267 6.8067L8.56001 11.78L6.47334 9.6867C6.40899 9.62454 6.33303 9.57566 6.2498 9.54286C6.16656 9.51006 6.07768 9.49397 5.98822 9.49552C5.89877 9.49706 5.8105 9.51622 5.72844 9.55188C5.64639 9.58754 5.57217 9.63902 5.51001 9.70336C5.44785 9.76771 5.39897 9.84367 5.36617 9.92691C5.33337 10.0101 5.31728 10.099 5.31883 10.1885C5.32038 10.2779 5.33953 10.3662 5.37519 10.4483C5.41085 10.5303 5.46233 10.6045 5.52667 10.6667L8.08667 13.2267C8.14865 13.2892 8.22238 13.3388 8.30362 13.3726C8.38486 13.4065 8.472 13.4239 8.56001 13.4239C8.64802 13.4239 8.73515 13.4065 8.81639 13.3726C8.89763 13.3388 8.97137 13.2892 9.03334 13.2267L14.4733 7.7867C14.541 7.72427 14.595 7.6485 14.632 7.56417C14.6689 7.47983 14.688 7.38876 14.688 7.2967C14.688 7.20463 14.6689 7.11356 14.632 7.02923C14.595 6.94489 14.541 6.86912 14.4733 6.8067Z" fill="#32936F"/>
</svg>
