<svg width="20" height="20" viewBox="0 0 20 20" fill="none" xmlns="http://www.w3.org/2000/svg">
<rect width="20" height="20" rx="10" fill="#32936F" fill-opacity="0.24"/>
<path d="M14.4733 6.80657C14.4114 6.74409 14.3376 6.69449 14.2564 6.66065C14.1752 6.6268 14.088 6.60938 14 6.60938C13.912 6.60938 13.8249 6.6268 13.7436 6.66065C13.6624 6.69449 13.5886 6.74409 13.5267 6.80657L8.56001 11.7799L6.47334 9.68657C6.40899 9.62441 6.33303 9.57554 6.2498 9.54274C6.16656 9.50993 6.07768 9.49385 5.98822 9.49539C5.89877 9.49694 5.8105 9.51609 5.72844 9.55176C5.64639 9.58742 5.57217 9.63889 5.51001 9.70324C5.44785 9.76759 5.39897 9.84355 5.36617 9.92679C5.33337 10.01 5.31728 10.0989 5.31883 10.1884C5.32038 10.2778 5.33953 10.3661 5.37519 10.4481C5.41085 10.5302 5.46233 10.6044 5.52667 10.6666L8.08667 13.2266C8.14865 13.2891 8.22238 13.3387 8.30362 13.3725C8.38486 13.4063 8.472 13.4238 8.56001 13.4238C8.64802 13.4238 8.73515 13.4063 8.81639 13.3725C8.89763 13.3387 8.97137 13.2891 9.03334 13.2266L14.4733 7.78657C14.541 7.72415 14.595 7.64838 14.632 7.56404C14.6689 7.47971 14.688 7.38864 14.688 7.29657C14.688 7.20451 14.6689 7.11344 14.632 7.0291C14.595 6.94477 14.541 6.869 14.4733 6.80657Z" fill="#32936F"/>
</svg>
