<svg width="1920" height="1080" viewBox="0 0 1920 1080" fill="none" xmlns="http://www.w3.org/2000/svg">
<rect width="1920" height="1080" fill="white"/>
<line y1="91.5" x2="1920" y2="91.5" stroke="#88A788"/>
<path d="M1842.5 33.25C1833.53 33.25 1826.25 40.53 1826.25 49.5C1826.25 58.47 1833.53 65.75 1842.5 65.75C1851.47 65.75 1858.75 58.47 1858.75 49.5C1858.75 40.53 1851.47 33.25 1842.5 33.25ZM1834.94 60.0625C1837.07 58.535 1839.67 57.625 1842.5 57.625C1845.33 57.625 1847.93 58.535 1850.06 60.0625C1847.93 61.59 1845.33 62.5 1842.5 62.5C1839.67 62.5 1837.07 61.59 1834.94 60.0625ZM1852.48 57.82C1849.73 55.675 1846.27 54.375 1842.5 54.375C1838.73 54.375 1835.27 55.675 1832.52 57.82C1830.64 55.5613 1829.5 52.6688 1829.5 49.5C1829.5 42.3175 1835.32 36.5 1842.5 36.5C1849.68 36.5 1855.5 42.3175 1855.5 49.5C1855.5 52.6688 1854.36 55.5613 1852.48 57.82Z" fill="#88A788"/>
<path d="M1842.5 39.75C1839.36 39.75 1836.81 42.3013 1836.81 45.4375C1836.81 48.5737 1839.36 51.125 1842.5 51.125C1845.64 51.125 1848.19 48.5737 1848.19 45.4375C1848.19 42.3013 1845.64 39.75 1842.5 39.75ZM1842.5 47.875C1841.15 47.875 1840.06 46.7863 1840.06 45.4375C1840.06 44.0887 1841.15 43 1842.5 43C1843.85 43 1844.94 44.0887 1844.94 45.4375C1844.94 46.7863 1843.85 47.875 1842.5 47.875Z" fill="#88A788"/>
<path d="M1521.5 40.0588L1529.62 47.3712V60.0625H1526.38V50.3125H1516.62V60.0625H1513.38V47.3712L1521.5 40.0588ZM1521.5 35.6875L1505.25 50.3125H1510.12V63.3125H1519.88V53.5625H1523.12V63.3125H1532.88V50.3125H1537.75L1521.5 35.6875Z" fill="#88A788"/>
<path d="M1751.75 39.75C1751.75 37.9625 1750.29 36.5 1748.5 36.5H1722.5C1720.71 36.5 1719.25 37.9625 1719.25 39.75V59.25C1719.25 61.0375 1720.71 62.5 1722.5 62.5H1748.5C1750.29 62.5 1751.75 61.0375 1751.75 59.25V39.75ZM1748.5 39.75L1735.5 47.875L1722.5 39.75H1748.5ZM1748.5 59.25H1722.5V43L1735.5 51.125L1748.5 43V59.25Z" fill="#88A788"/>
<path d="M1614.7 39.7988L1626.91 45.0312L1614.69 43.4062L1614.7 39.7988ZM1626.89 53.9688L1614.69 59.2012V55.5938L1626.89 53.9688ZM1611.45 34.875L1611.44 46.25L1635.81 49.5L1611.44 52.75L1611.45 64.125L1645.56 49.5L1611.45 34.875Z" fill="#88A788"/>
</svg>
